<svg width="96" height="25" viewBox="0 0 96 25" fill="none" xmlns="http://www.w3.org/2000/svg">
<path fill-rule="evenodd" clip-rule="evenodd" d="M83.6871 14.1357C83.8253 14.1357 83.9626 14.136 84.099 14.1367L84.3703 14.1383C84.9105 14.1423 85.4352 14.1513 85.9444 14.165L86.1977 14.1723C86.2397 14.1736 86.2816 14.1749 86.3233 14.1763L86.5727 14.1848V14.1848L86.8196 14.1941C86.8605 14.1957 86.9013 14.1973 86.942 14.199L87.1849 14.2095V14.2095L87.4253 14.2208V14.2208C87.4418 14.3854 87.4501 14.554 87.4501 14.7265C87.4501 14.8756 87.4415 15.0275 87.4244 15.1823C87.4073 15.3371 87.3759 15.512 87.3302 15.7069L81.2853 15.7219C81.3304 15.8907 81.3903 16.0491 81.4651 16.1971C81.6535 16.5698 81.9247 16.8564 82.2786 17.0571C82.6325 17.2578 83.0435 17.3581 83.5115 17.3581C83.9339 17.3581 84.3164 17.2864 84.6589 17.1431C85.0013 16.9998 85.2981 16.7848 85.5493 16.4981L86.8679 17.8225C86.4683 18.2926 85.9802 18.651 85.4037 18.8975C84.8272 19.1441 84.2022 19.2673 83.5286 19.2673C82.661 19.2673 81.8904 19.0781 81.2169 18.6997C80.5433 18.3213 80.0096 17.8053 79.6157 17.1517C79.2219 16.4981 79.0249 15.7528 79.0249 14.9157C79.0249 14.6929 79.0389 14.4766 79.0667 14.2668L79.1261 14.2636L79.3526 14.252L79.5773 14.241L79.8004 14.2305L80.022 14.2205L80.242 14.2111L80.4605 14.2023L80.6775 14.194L81.0004 14.1826L81.214 14.1757L81.4263 14.1693L81.6373 14.1635L81.8471 14.1582L82.0557 14.1535L82.2631 14.1493L82.5209 14.1449V14.1449L82.7771 14.1414L82.9809 14.1391L83.0825 14.1382L83.2849 14.1369L83.4864 14.136L83.6871 14.1357Z" fill="#030310"/>
<path fill-rule="evenodd" clip-rule="evenodd" d="M71.0367 14.9037C71.0367 15.7199 70.8431 16.4585 70.456 17.1195C70.0689 17.7805 69.5436 18.3036 68.8799 18.6887C68.2164 19.0738 67.4677 19.2664 66.6339 19.2664C65.8087 19.2664 65.0635 19.0738 64.3985 18.6887C63.7335 18.3036 63.2067 17.7805 62.8182 17.1195C62.5585 16.6776 62.3856 16.2011 62.2995 15.6899L62.6529 15.6605L63.2594 15.6087L63.9778 15.5458L64.5787 15.492C64.6232 15.6992 64.6928 15.8932 64.7877 16.0741C64.9664 16.4147 65.216 16.6798 65.5364 16.8695C65.8568 17.0591 66.2213 17.154 66.6296 17.154C67.0494 17.154 67.4194 17.0591 67.7399 16.8695C68.0604 16.6798 68.3092 16.4147 68.4864 16.0741C68.6369 15.7849 68.7235 15.4611 68.7463 15.1026L70.7366 14.9139L71.0366 14.8857L71.0367 14.9037V14.9037Z" fill="#030310"/>
<path fill-rule="evenodd" clip-rule="evenodd" d="M78.7753 14.3232L78.7753 15.6221C78.7753 16.3457 78.6167 16.9809 78.2995 17.5279C77.9822 18.0749 77.5425 18.5015 76.9803 18.8077C76.4181 19.114 75.769 19.2671 75.033 19.2671C74.3076 19.2671 73.6611 19.1118 73.0936 18.8013C72.526 18.4908 72.0829 18.062 71.7643 17.5149C71.4456 16.9679 71.2863 16.3368 71.2863 15.6218L71.2863 14.9041L72.3133 14.8094L73.1151 14.7371L73.4868 14.7043L73.5411 14.6996L73.5411 15.5665C73.5411 15.9087 73.5995 16.2013 73.7164 16.4441C73.8331 16.687 74.0046 16.8735 74.2306 17.0036C74.4567 17.1338 74.7255 17.1989 75.0372 17.1989C75.5059 17.1989 75.8703 17.0563 76.1303 16.7713C76.3904 16.4862 76.5204 16.0846 76.5204 15.5665L76.5204 14.4665L76.9056 14.4396L77.1503 14.4229L77.5135 14.3989L77.7531 14.3836L77.9908 14.3689L78.2265 14.3546L78.4603 14.341L78.6923 14.3278L78.7753 14.3232Z" fill="#030310"/>
<path fill-rule="evenodd" clip-rule="evenodd" d="M87.6227 14.2607L87.7339 14.2667V14.2667L87.9546 14.2792C87.9912 14.2814 88.0277 14.2835 88.0641 14.2857L88.2813 14.2993V14.2993L88.4963 14.3136V14.3136L88.7089 14.3286V14.3286L88.9192 14.3443C88.9541 14.3469 88.9888 14.3497 89.0235 14.3524L89.2304 14.3691C92.1443 14.6116 94.3618 15.0671 95.8752 15.7284L95.8749 15.7288L89.8314 15.74C89.8772 15.9121 89.9386 16.0733 90.0156 16.2236C90.2053 16.5934 90.4756 16.8776 90.8264 17.076C91.1772 17.2745 91.588 17.3737 92.0586 17.3737C92.475 17.3737 92.8558 17.3016 93.2009 17.1574C93.546 17.0132 93.8441 16.7983 94.0951 16.5127L95.4129 17.8407C95.0076 18.3119 94.5175 18.6674 93.9411 18.9073C93.3649 19.1472 92.7417 19.2672 92.0714 19.2672C91.21 19.2672 90.4406 19.0815 89.7632 18.7103C89.0858 18.339 88.5517 17.8257 88.161 17.1703C87.7702 16.5149 87.5749 15.7745 87.5749 14.9492C87.5749 14.7142 87.5905 14.4862 87.6218 14.2653L87.6227 14.2607Z" fill="#030310"/>
<path fill-rule="evenodd" clip-rule="evenodd" d="M39.77 15.7002C40.5479 15.8333 41.3685 15.9462 42.2317 16.0389C42.2491 16.0758 42.2673 16.1122 42.2866 16.148C42.4662 16.4818 42.7135 16.7428 43.0285 16.931C43.3434 17.1191 43.7048 17.2132 44.1124 17.2132C44.7395 17.2132 45.2455 17.006 45.6304 16.5915C45.7152 16.5002 45.7906 16.4032 45.8567 16.3006C46.6494 16.3332 47.4705 16.3525 48.3198 16.3588L48.32 19.0975H46.0922V18.319C45.866 18.5535 45.5988 18.7494 45.2905 18.9065C44.8187 19.147 44.2863 19.2673 43.6934 19.2673C42.9408 19.2673 42.2645 19.0805 41.6644 18.7071C41.0643 18.3336 40.5911 17.8257 40.2448 17.1835C40.0122 16.7521 39.8577 16.2837 39.7813 15.7783L39.77 15.7002Z" fill="#030310"/>
<path fill-rule="evenodd" clip-rule="evenodd" d="M61.58 17.3826C61.2658 17.8981 60.8102 18.3097 60.2131 18.6176C59.6162 18.9255 58.8926 19.0794 58.0425 19.0794H53.1255L53.1254 16.2809L53.4018 16.272V16.272L53.6789 16.2625L54.0806 16.2479C54.5282 16.231 54.9787 16.2119 55.4325 16.1908L55.4326 17.1983H57.9572C58.5173 17.1983 58.9537 17.0295 59.2664 16.692C59.4725 16.4695 59.6107 16.2192 59.681 15.9409L59.8065 15.9321L60.2019 15.9039L60.7586 15.863L61.0796 15.8387L61.5665 15.8011L62.0498 15.7627C62.0337 16.3551 61.8771 16.895 61.58 17.3826Z" fill="#030310"/>
<path fill-rule="evenodd" clip-rule="evenodd" d="M32.1562 12.8213C32.821 13.3185 33.595 13.7619 34.4782 14.152L34.4784 16.9998H39.9572V19.0793H32.1564L32.1562 12.8213Z" fill="#030310"/>
<path fill-rule="evenodd" clip-rule="evenodd" d="M43.651 10.6309C44.2414 10.6309 44.7693 10.7533 45.2348 10.9983C45.5432 11.1606 45.8115 11.3633 46.0395 11.6065V10.8038H48.2575L48.2573 15.387C47.5274 15.3814 46.8195 15.3657 46.1337 15.34C46.1476 15.2239 46.1544 15.1036 46.1544 14.9792C46.1544 14.5354 46.0678 14.1442 45.8947 13.8056C45.7216 13.4671 45.4789 13.202 45.1667 13.0104C44.8545 12.8187 44.4898 12.7229 44.0725 12.7229C43.6638 12.7229 43.3034 12.8187 42.9912 13.0104C42.6789 13.202 42.4327 13.4678 42.2525 13.8078C42.0723 14.1478 41.9822 14.5383 41.9822 14.9792C41.9822 14.9964 41.9823 15.0135 41.9826 15.0305C41.1839 14.9367 40.4255 14.8246 39.7076 14.6944C39.7445 13.9835 39.9144 13.3401 40.2175 12.764C40.5623 12.1084 41.0334 11.589 41.6309 11.2058C42.2284 10.8225 42.9017 10.6309 43.651 10.6309Z" fill="#030310"/>
<path fill-rule="evenodd" clip-rule="evenodd" d="M57.9654 7.00098C58.7536 7.00098 59.4164 7.14754 59.9537 7.44055C60.491 7.73362 60.8958 8.1167 61.168 8.58984C61.4402 9.06304 61.5763 9.5798 61.5763 10.1401C61.5763 10.8292 61.37 11.4224 60.9574 11.9198C60.7367 12.186 60.4609 12.4158 60.1301 12.6091C60.6008 12.8448 60.9907 13.1469 61.2998 13.5151C61.603 13.8762 61.8113 14.2831 61.925 14.7357L61.5188 14.7688L61.125 14.8002L60.7362 14.8307L60.3524 14.8601L59.9732 14.8886L59.6509 14.9122C59.6163 14.7867 59.5684 14.6662 59.5071 14.5508C59.3668 14.2863 59.1641 14.0769 58.899 13.9225C58.6339 13.7682 58.3156 13.691 57.9441 13.691H55.4263L55.4263 15.1707L55.3806 15.1729L55.0462 15.1884L54.8796 15.1959L54.5477 15.21L54.2171 15.2234L54.0523 15.2297L53.7234 15.2418C53.5237 15.2488 53.3244 15.2554 53.1254 15.2616V7.00098H57.9654ZM57.689 8.90494H55.4263V11.8125H57.689C58.1625 11.8125 58.5439 11.691 58.8331 11.448C59.1223 11.205 59.2669 10.8419 59.2669 10.3587C59.2669 9.87559 59.1223 9.51252 58.8331 9.26951C58.5439 9.0265 58.1625 8.90494 57.689 8.90494Z" fill="#030310"/>
<path fill-rule="evenodd" clip-rule="evenodd" d="M66.5869 10.6309C67.4248 10.6309 68.1771 10.8208 68.844 11.2008C69.5109 11.5809 70.0395 12.0971 70.4299 12.7495C70.656 13.1273 70.8166 13.5323 70.9118 13.9644L68.6069 14.181C68.5646 14.0484 68.5104 13.9226 68.4443 13.8035C68.2605 13.4723 68.0104 13.212 67.6941 13.0227C67.3777 12.8334 67.0087 12.7388 66.5869 12.7388C66.1765 12.7388 65.8103 12.8341 65.4883 13.0248C65.1663 13.2156 64.9155 13.4766 64.7359 13.8078C64.6131 14.0345 64.5323 14.2857 64.4935 14.5614L63.9711 14.6077L63.5403 14.6453L62.9058 14.6998L62.6974 14.7175L62.1746 14.7612C62.2026 14.022 62.3959 13.3537 62.7545 12.756C63.1436 12.1078 63.6722 11.5916 64.3405 11.2073C65.0088 10.823 65.7576 10.6309 66.5869 10.6309Z" fill="#030310"/>
<path fill-rule="evenodd" clip-rule="evenodd" d="M91.9391 10.6309C92.7322 10.6309 93.4334 10.8102 94.0424 11.1689C94.6517 11.5276 95.1301 12.0211 95.4781 12.6491C95.8209 13.2679 95.9949 13.9719 96 14.7612C95.3693 14.5055 94.6446 14.2821 93.8259 14.0906L93.8491 14.0905C93.8061 13.888 93.7465 13.705 93.6701 13.5416C93.5146 13.2088 93.2921 12.9546 93.0025 12.7788C92.713 12.603 92.3556 12.5152 91.9305 12.5152C91.4854 12.5152 91.0988 12.6146 90.7708 12.8134C90.4914 12.9827 90.2663 13.2109 90.0956 13.4982C89.3997 13.4277 88.6635 13.3705 87.8869 13.3266C87.9637 13.1308 88.0556 12.9417 88.1624 12.7594C88.5461 12.1039 89.0682 11.5853 89.7287 11.2035C90.3892 10.8217 91.126 10.6309 91.9391 10.6309Z" fill="#030310"/>
<path fill-rule="evenodd" clip-rule="evenodd" d="M73.533 10.8184L73.533 13.7414L72.8601 13.8015L71.7295 13.9056L71.2863 13.9474L71.2863 10.8184H73.533Z" fill="#030310"/>
<path fill-rule="evenodd" clip-rule="evenodd" d="M78.7753 10.8184L78.7752 13.3654L78.5633 13.3774L78.3261 13.3911L78.0871 13.4055L77.8461 13.4204L77.6031 13.4358L77.3581 13.4519L76.9867 13.477L76.7364 13.4944L76.5286 13.5093L76.5286 10.8184H78.7753Z" fill="#030310"/>
<path fill-rule="evenodd" clip-rule="evenodd" d="M83.3776 10.6309C84.1737 10.6309 84.8761 10.811 85.4846 11.1712C86.0931 11.5315 86.5708 12.0232 86.9177 12.6465C87.0302 12.8486 87.1244 13.0593 87.2004 13.2788C86.4755 13.2463 85.7172 13.2246 84.9256 13.2137C84.7942 13.0316 84.6337 12.8826 84.4439 12.7666C84.1538 12.5893 83.7984 12.5007 83.3776 12.5007C82.934 12.5007 82.5473 12.6008 82.2174 12.8009C82.0258 12.9172 81.8601 13.0605 81.7203 13.2308L81.5938 13.2341L81.4862 13.237V13.237L81.3782 13.2401L81.1613 13.2467L80.943 13.2538L80.7234 13.2616L80.5023 13.2699L80.2798 13.2788L79.9431 13.2931L79.7167 13.3034L79.4887 13.3143L79.3369 13.3218C79.4145 13.1239 79.5073 12.9331 79.6156 12.7495C79.9966 12.1033 80.517 11.5886 81.1767 11.2055C81.8364 10.8224 82.57 10.6309 83.3776 10.6309Z" fill="#030310"/>
<path fill-rule="evenodd" clip-rule="evenodd" d="M34.4653 7.06348L34.4651 13.1338C33.5505 12.6918 32.7808 12.1858 32.1562 11.6165L32.1563 7.06348H34.4653Z" fill="#030310"/>
<path fill-rule="evenodd" clip-rule="evenodd" d="M83.9026 6L85.3282 7.72754L82.3074 9.69223L81.4588 8.64216L83.9026 6Z" fill="#030310"/>
<rect width="25" height="25" rx="4.63476" fill="#030310"/>
<path fill-rule="evenodd" clip-rule="evenodd" d="M14.1895 4.84668C17.3744 4.84668 19.9644 7.40041 20.034 10.5771L19.9648 10.6033C19.1496 10.9044 18.2684 11.0688 17.349 11.0688C15.4986 11.0688 13.8034 10.4029 12.4886 9.29713C14.2522 9.62836 15.8653 8.9524 16.1458 7.73412C16.4039 6.61309 15.4472 5.40882 13.945 4.85169C14.026 4.84837 14.1076 4.84668 14.1895 4.84668Z" fill="#6B55F6"/>
<path fill-rule="evenodd" clip-rule="evenodd" d="M5.22858 11.6868C7.97397 14.5999 11.8633 16.4177 16.176 16.4177C16.6028 16.4177 17.0254 16.3999 17.4431 16.365C16.1421 17.4856 14.4501 18.163 12.6003 18.163C8.8636 18.163 5.77071 15.3989 5.24425 11.7986L5.22858 11.6868ZM10.6257 6.92871L10.6638 7.00136C11.9357 9.39832 14.4523 11.0302 17.349 11.0302C18.2943 11.0302 19.1991 10.8564 20.0334 10.539L20.0336 10.5387C20.0348 10.5949 20.0354 10.6513 20.0354 10.7078C20.0354 12.3527 19.5041 13.8732 18.6042 15.1062L18.6043 15.1065C17.8156 15.2451 17.0042 15.3175 16.176 15.3175C11.7233 15.3175 7.7575 13.2275 5.20093 9.97256C5.29051 9.05487 5.54603 8.18599 5.93702 7.39647C6.40128 7.4659 6.87636 7.50183 7.35981 7.50183C8.50675 7.50183 9.60658 7.29958 10.6258 6.92872L10.6257 6.92871Z" fill="#FFF869"/>
<path d="M10.414 16.7089C9.8993 16.5113 9.32271 16.701 9.14 17.1769L8.89664 17.8109C8.71393 18.2869 9.01553 18.8136 9.5302 19.0112C10.0449 19.2088 10.6215 19.0191 10.8042 18.5431L11.0475 17.9092C11.2302 17.4332 10.9286 16.9065 10.414 16.7089ZM10.1828 17.311C10.39 17.3906 10.4903 17.5658 10.447 17.6787L10.2037 18.3126C10.1603 18.4255 9.96851 18.4886 9.76134 18.409C9.55417 18.3295 9.45383 18.1543 9.49716 18.0414L9.74051 17.4075C9.78384 17.2946 9.97566 17.2315 10.1828 17.311Z" fill="#FFF869"/>
<path d="M9.876 17.8594C10.0504 17.8594 10.1924 17.9986 10.1975 18.1722L10.1976 18.1819V19.358C10.1976 19.5361 10.0536 19.6805 9.876 19.6805C9.70161 19.6805 9.55963 19.5413 9.55452 19.3677L9.55438 19.358V18.1819C9.55438 18.0038 9.69838 17.8594 9.876 17.8594Z" fill="#FFF869"/>
</svg>
